<svg xmlns="http://www.w3.org/2000/svg" viewBox="0 0 439.31 225.52"><defs><style>.cls-1{fill:#fff;}.cls-2{fill:#e69e44;}.cls-3{fill:#dc7d43;}</style></defs><title>Ресурс 1</title><g id="Слой_2" data-name="Слой 2"><g id="Слой_1-2" data-name="Слой 1"><path d="M439.31,197.77C315.64,156.46,192,252.13,68.29,218q-5-5.61-10-11.52Q66.35,192,74.45,176.74c118.22,24.67,236.44-65.21,354.67-36.61q5.08,7.23,10.19,14.77-7.28,8.28-14.57,17.18Q432,184.62,439.31,197.77Z"/><path class="cls-1" d="M425.16,188.64C303.54,153.78,181.91,240,60.29,205.11V162.24c121.62,34.87,243.25-51.33,364.87-16.47q-7.29,8.63-14.57,17.82Q417.87,175.84,425.16,188.64Z"/><path d="M123.84,214.54c-21.31,0-42.61-2.38-63.82-8.46l-.73-.21v-45l1.28.36c60.57,17.37,122.27,4.34,182-8.25,59.91-12.65,121.86-25.72,182.91-8.22l1.49.43-1,1.18c-4.61,5.46-9.36,11.26-14.12,17.25,4.77,8,9.56,16.27,14.23,24.48l1.21,2.13-2.36-.68c-60.57-17.36-122.28-4.34-181.95,8.26C203.83,206.11,163.86,214.54,123.84,214.54ZM61.29,204.36c60.34,17,121.79,4.08,181.23-8.46,59.14-12.48,120.27-25.38,180.56-8.88-4.39-7.69-8.88-15.39-13.35-22.92l-.36-.59.43-.54c4.58-5.76,9.14-11.36,13.59-16.66-60.09-16.73-121.27-3.82-180.46,8.68-39.1,8.25-79.07,16.68-119.09,16.68a230.75,230.75,0,0,1-62.55-8.1Z"/><path d="M373.31,57.78l-.24-.14-.23-.13-.24-.14-.24-.14-.23-.14-.24-.14-.24-.14-.24-.14-.23-.14-.24-.13-.13-.09c18.39-4.79,22.64-21.57,22.64-36V14l-.24.05v-.19l-.23.05v-.18l-.24,0V13.6l-.24.05v-.19l-.24,0v-.19l-.23,0v-.19l-.24.05V13l-.24.05V12.9l-.23,0v-.19l-.24.05v-.18l-.24,0v-.19l-.24,0v-.19l-.23.05v-.19l-.24,0v-.19l-.24,0v-.19l-.23.05v-.19l-.24.05v-.19l-.24,0v-.18l-.23.05v-.19l-.24,0v-.19l-.24,0V11.1l-.24.05V11L388,11v-.19l-.24,0v-.19l-.24.05v-.19l-.23.05v-.18l-.24.05v-.19l-.24.05v-.19l-.24,0V10l-.23,0V9.85l-.24.05V9.71l-.24,0V9.57l-.23,0V9.43l-.24.05V9.3l-.24,0V9.16l-.23.05V9l-.24.05V8.88l-.24,0V8.74l-.24,0V8.6l-.23.05V8.46l-.24,0V8.32l-.24,0V8.19l-.23.05V8.05l-.24,0V7.91l-.24,0V7.77l-.24.05V7.63l-.23,0V7.49l-.24,0V7.35l-.24.05V7.21l-.23,0V7.08l-.24,0V6.94l-.24,0V6.8l-.23,0V6.66l-.24,0V6.52l-.24.05V6.38l-.24,0V6.24l-.23,0V6.1l-.24.06V6l-.24,0V5.83l-.23,0V5.69l-.24,0V5.55l-.24,0V5.41l-.24,0V5.27l-.23.05V5.13l-.24,0V5l-.24.06V4.86l-.23,0V4.72l-.24,0V4.58l-.24,0V4.44l-.23,0V4.3l-.24,0V4.16l-.24,0V4l-.24.05V3.88l-.23.06V3.75l-.24,0V3.61l-.24.05V3.47l-.23,0V3.33l-.24,0V3.19l-.24.05V3.05l-.23.05V2.91l-.24,0V2.77l-.24.06V2.64l-.24,0V2.5l-.23,0V2.36l-.24.05V2.22l-.24,0V2.08l-.23,0V1.94l-.24.05V1.8l-.24.05V1.66l-.24.06V1.53l-.23.05V1.39l-.24.05V1.25l-.24.05V1.11l-.23,0V1l-.24.05V.83l-.24.05V.69l-.23.05V.56l-.24,0V.42l-.24,0V.28l-.24,0V.14l-.23,0V0l-6.15,1.3c-.24.05-5.84,1.24-7.29,1.57l-3.48.79-.44,3.54c-1.1,8.67-8.09,10.5-19.42,12.76-6.37,1.27-13,2.58-17.49,6.39l-1.37,1.14-2.21,10.93-.23-.13-.24-.14L311,38l-.23-.14-.24-.14-.24-.14-.23-.13-.24-.14-.24-.14L309.3,37l-.24-.14-.24-.14-.24-.14-.23-.14-.24-.13-.24-.14-.23-.14-.24-.14-.24-.14-.24-.14-.23-.14-.24-.14-.24-.13L306,35.1l-.24-.14-.24-.14-.23-.14-.24-.14-.24-.14-.24-.14-.23-.13-.24-.14-.24-.14-.23-.14-.24-.14-.24-.14-.24-.14-.23-.14-.24-.13-.24-.14-.23-.14-.24-.14-.24-.14-.23-.14-.24-.14-.24-.14-.24-.13-.23-.14-.24-.14a26.42,26.42,0,0,0-13.64-3.69,28.31,28.31,0,0,0-15,4.26,30.47,30.47,0,0,0-3.11,2.23,28.14,28.14,0,0,0-9.93,27.09l-.21-.11-.24-.14-.23-.14-.24-.14-.24-.14-.24-.14-.23-.14-.24-.13-.24-.14-.23-.14-.24-.14-.24-.14-.23-.14-.24-.14-.24-.14-.24-.13-.23-.14-.24-.14-.24-.14-.23-.14-.24-.14-.24-.14-.24-.14-.23-.13-.24-.14-.24-.14L252,57.8l-.24-.14-.24-.14-.23-.14-.24-.14-.24-.13-.24-.14-.23-.14-.24-.14-.24-.14-.23-.14-.24-.14-.24-.14L249,56l-.23-.14-.24-.14-.24-.14-.23-.14-.24-.14-.24-.14L247.3,55l-.24-.13-.24-.14A12.52,12.52,0,0,0,240.16,53a19.31,19.31,0,0,0-9.22,2.56,21.81,21.81,0,0,0-2.88,2h0l0-.2-.26.06,0-.19-.27,0,0-.19-.27,0,0-.19-.26.06,0-.2-.26.06,0-.2-.27.06,0-.2-.27.06,0-.2-.26.06,0-.2-.27.06,0-.19-.27,0,0-.19-.26,0,0-.19L208,59.54a15.29,15.29,0,0,0-3.63-.43,17.31,17.31,0,0,0-12.32,5.31l.07-.17-.32.06.09-.2-.32.07.08-.21-.32.07.08-.21-.32.07.08-.21-.32.07.09-.21L171.27,67.8a14.41,14.41,0,0,0-4-1h-.2c-.31,0-.61,0-.92,0a17.67,17.67,0,0,0-4.75.66,22.11,22.11,0,0,0-4.85,2,25.16,25.16,0,0,0-3.3,2.23l-18.51,4v0l-.29.07.06-.2-.3.06.06-.2-.29.06,0-.2-.29.06.06-.2-.3.06.06-.2-.29.06.05-.2-.29.06.05-.2-.29.06.06-.2-.3.07.06-.2-.29.06,0-.2-.29.06.06-.2-.3.06.06-.2-.29.06,0-.2-.29.06.05-.2-.29.06.06-.2-.29.07.05-.21-.29.07.05-.2-.29.06.06-.2-.3.06.06-.2-.29.06,0-.2-.29.06.06-.2-.3.06.06-.2-14.76,3.15-.8,4.07-.18.82L103,83a16.9,16.9,0,0,0-7.61-9.15l-.24-.13-.24-.14-.23-.14-.24-.14-.24-.14L93.94,73l-.24-.14-.24-.14-.24-.13L93,72.49l-.24-.14-.24-.14-.23-.14L92,71.93l-.24-.14-.23-.14-.24-.13-.24-.14-.24-.14-.23-.14L90.38,71l-.24-.14-.23-.14-.24-.14-.24-.13-.24-.14L89,70.13,88.72,70l-.24-.14-.23-.14L88,69.57l-.24-.14-.23-.13-.24-.14L87.06,69l-.24-.14-.23-.14-.24-.14-.24-.14-.23-.14-.24-.13-.24-.14-.24-.14-.23-.14-.24-.14-.24-.14-.23-.14L84,67.21l-.24-.13-.23-.14-.24-.14L83,66.66l-.24-.14-.23-.14-.24-.14-.24-.13L81.85,66l-.24-.14-.24-.14-.24-.14-.23-.14-.24-.14-.24-.14L80.19,65,80,64.86l-.24-.14-.23-.14-.24-.14L79,64.3l-.24-.14L78.53,64l-.24-.13-.24-.14-.23-.14-.24-.14-.24-.14-.24-.14-.23-.14-.24-.14-.24-.13-.23-.14-.24-.14-.24-.14-.23-.14-.24-.14L75,61.94l-.24-.14-.23-.14-.24-.13L74,61.39l-.23-.14-.24-.14L73.31,61l-.23-.14-.24-.14-.24-.13-.24-.14-.23-.14-.24-.14L71.65,60a19.25,19.25,0,0,0-5.28-2.15,21.36,21.36,0,0,0-5.18-.63C43.89,57.22,25.94,77.58,20,96.6c-5,16.05-4.39,30.67,1.6,39.12A18.35,18.35,0,0,0,27.36,141C11.53,147.91,1.54,159.3.14,173a24.51,24.51,0,0,0,5.93,19,20.91,20.91,0,0,0,5,4.1l.23.14.24.14.24.13.23.14.24.14.24.14.24.14.23.14.24.14.24.14.23.13.24.14.24.14.23.14.24.14.24.14.24.14.23.14.24.13.24.14.23.14.24.14.24.14.23.14.24.14.24.14.24.13.23.14.24.14.24.14.23.14.24.14.24.14.24.14.23.13.24.14.24.14.23.14.24.14.24.14.23.14.24.14.24.13.24.14.23.14.24.14.24.14.23.14.24.14L23,203l.24.13.23.14.24.14.24.14.23.14.24.14.24.14.23.14.24.13.24.14.24.14.23.14.24.14.24.14.23.14.24.14.24.13.24.14.23.14.24.14.24.14.23.14.24.14.24.14.23.13.24.14.24.14.24.14.23.14.24.14.24.14.23.14.24.13.24.14.24.14.23.14.24.14.24.14.23.14.24.14.24.13.23.14.24.14.24.14.24.14.23.14.24.14.24.14.23.13.24.14a19.38,19.38,0,0,0,10,2.76c6.16,0,18.11-3,28.82-23.38,2.87-5.56,6.08-14.3,9.21-23.38,5.22.87,10.49,2,15.61,3.15l4.87,1c7.58,1.63,22.59,3.26,39,3.26h0c14.08,0,34.73-1.23,53.11-7.08,18.73-5.95,31.68-15.51,38.57-28.41l1.42,7.73.16-.26.08.4.16-.26.08.4.16-.26.07.4.17-.26.07.39.16-.25.08.39.16-.26.07.4.17-.26.07.4.16-.26.08.4.16-.26.07.4.17-.26.07.4.17-.26.07.4.16-.26.08.39.16-.25.07.39.17-.26.07.4.16-.26.08.4.16-.26.07.4.17-.26.07.4.16-.26.08.4.16-.26.08.4.16-.26.07.39.17-.25.07.39.16-.26.08.4.16-.26.07.4.17-.26.07.4.16-.26.08.4.16-.26.07.4.17-.26.07.4.17-.26.07.39.16-.25.08.39.16-.26.07.4.17-.26.07.4.16-.26.08.4.16-.26.07.4.17-.26.07.4.16-.26.08.4.16-.26.08.39.16-.25.07.39.17-.26.07.4.16-.26.08.4.16-.26.07.4.17-.26.07.4.16-.26.08.4.16-.26.07.4.17-.26.07.39.17-.25.07.39.16-.26.08.4.16-.26.07.4.17-.26.07.4L247,152l.08.4.16-.26.07.4.17-.26.07.4.16-.26.08.39.16-.25.08.39.16-.26.07.4.17-.26.07.4.16-.26.08.4.16-.26.07.4.17-.26.07.4.16-.26.08.4.16-.26.07.39.17-.25.07.39.17-.26.07.4.16-.26.08.4.16-.26.07.4.17-.26.07.4.16-.26.08.4.16-.26.07.4.17-.26.07.39.16-.25.08.39.16-.26.07.4.17-.26.07.4.17-.26.07.4.16-.26.08.4.16-.26.07.4.17-.26.07.4.16-.26.08.39.16-.25.07.39.17-.26.07.4.17-.26.07.4.16-.26.08.4.16-.26.07.4.17-.26.07.4.16-.26.08.4.16-.26.07.39.17-.25.07.39.16-.26.08.4.16-.26.07.4.17-.26.07.4.17-.26.07.4.16-.26.08.4.16-.26.07.4.17-.26.07.39.16-.25.08.39.16-.26.07.4.17-.26.07.4.17-.26.07.4.16-.26.08.4.16-.26.07.4.17-.26.07.4.16-.26.08.39.16-.25.07.39,6.94-10.94c.34-.54,8.76-13,29.09-13l1.6,0,2.37,0c16.79,0,25.66-7.24,30.08-16.7l.17.09.23.14.24.14.24.13.23.14.24.14.24.14.23.14.24.14.24.14.24.14.23.13.24.14.24.14.23.14.24.14.24.14.24.14.23.14.24.13.24.14.23.14.24.14.24.14.23.14a22.39,22.39,0,0,0,9.77,2.93c1,.09,2,.13,3,.13h0c10.89,0,20.45-5,27.66-14.59a53.17,53.17,0,0,0,10-24.79c1-9-1.44-17.89-6.62-23.7a22,22,0,0,0-5.32-4.36l-.23-.14Z"/><path class="cls-2" d="M257.74,109c1.43-4.66,4.1-8.66,33-24.93,17-9.57,22.56-33.44,10-45.5A21.68,21.68,0,0,0,298,36.35c-7.28-4.71-16.95-4.2-23.86.16a25.7,25.7,0,0,0-2.57,1.85,23,23,0,0,0-8.55,17c-.41,12.77,7.75,16.45,13.19,16.17a1.27,1.27,0,0,0,1.06-1.88,9.83,9.83,0,0,1-.89-2.18c-1.95-7.35.09-17,8.74-18.55a8.52,8.52,0,0,1,9.16,6.11A15.79,15.79,0,0,1,293,66.44a23.53,23.53,0,0,1-1.62,3,24.41,24.41,0,0,1-2.17,2.94c-8.81,10.3-56.7,29.42-51.1,59.51,0,0,10.22-16.14,35.14-15.35C285,117,304.37,115,304.37,84.35c0,0-6,1.26-7.22,1.55C294.56,106.39,266.87,99.79,257.74,109Z"/><path class="cls-2" d="M335,46.43c-8.64,1.54-14.87,8.83-14.87,8.83l3.5-16.17a51.39,51.39,0,0,1,9.62-.57C345,38.89,364.42,37,364.42,6.28c0,0-5.79,1.23-7.22,1.56-2.52,20-28.91,14.2-38.69,22.41l-2.16,10.63-5,24.91,5.93-1.39s4.42-8.94,12.94-8.94,9.4,8.45,6.15,17.13-9.48,12.65-15.2,12.75c-7.45.13-3.89-12.31-3.89-12.31L310,74.73s-11,29.7,11.59,31.56S355.17,85,356.72,71.53,350.83,44.1,335,46.43Z"/><path class="cls-2" d="M219.33,62.31l-6.69,1.44c-.14,1.63-.3,3.75-.47,5.44-1.32-3.29-4.16-5-7.79-5-4.36,0-11.86,2.65-14.33,15.9-2.6,4.48-6.9,10.64-9.63,10.64-5.8,0,2.26-20.2,2.26-20.2L173,72.63c-.16.61-.33,1.28-.51,2a8.88,8.88,0,0,0-5.63-2.69,12.65,12.65,0,0,0-4,.45,16.89,16.89,0,0,0-3.73,1.55c-4.71,2.65-8.38,7.46-10.64,12.6A25.57,25.57,0,0,0,146,93.78c-1.87,2.43-4.14,4.57-6.47,5-5.81,1-1-14,2.72-19.44l-7.56,1.63c-8.1,5.92-11.79,1.4-12.27-.81a1.82,1.82,0,0,1,0-.75l-3.29.7-.16.82c-1.5,7.27-6.69,27.09-12.27,27.11-5.8,0,3-21.21,3-21.21L100,88.88c-.16.6-.33,1.26-.51,2a8.88,8.88,0,0,0-5.63-2.69,12.94,12.94,0,0,0-4,.45,17.18,17.18,0,0,0-3.73,1.55c-4.71,2.65-8.38,7.47-10.64,12.61a24.94,24.94,0,0,0-1.22,2.8,24.45,24.45,0,0,0-.72,14.92c1.64,5.34,7.79,9,13.15,6.59A15.66,15.66,0,0,0,90.35,125a26.56,26.56,0,0,0,5.64-6c.16-.23.33-.48.49-.73.9,2.94,2.77,4.46,6.24,3.84,11.56-2.07,15.45-22.67,18.44-34.53a4.43,4.43,0,0,0,3.78,1.54,9.57,9.57,0,0,0,6.18-1.94C126.42,96,119.8,111.56,129,116c8.1,3.9,14.12-4.78,17.51-11.86a.83.83,0,0,0,0,.15c1.64,5.33,7.79,9,13.15,6.58a15.32,15.32,0,0,0,3.71-2.11,26.28,26.28,0,0,0,5.64-6c.38-.55.76-1.13,1.14-1.73,1,3.2,3,5.08,6.66,4.43,5.23-.92,9.65-8.94,13-17.08,2.19,9.5,14.61,8,19.89-2-3.35,16.76-10.15,33-26,39.78-19.3,8.26-41.86,7.48-62.47,8.34-21.07.87-42.34,1.3-63.24,4.31C64.15,120.27,70.45,101.05,75,95L68.7,96.52a94.37,94.37,0,0,0-9.46,16.16c-4.52,9.72-30.19,16.49-20.37-17.84,2-8.42,15-28.36,25.28-25.74C71.64,71,64.2,84,58,84.29c0,0,1.56,6.77,9.22,5.17s13.54-22.77-2.1-26.68S30.62,79.68,24.89,98.11,20.38,138,37.06,138.61c14.82.55,19.41-10.89,19.41-10.89a119.36,119.36,0,0,1-4.84,12c-.83.22-2,.44-3.79.74C24.58,144.27,7,156.37,5.2,173.52c-1.93,18.8,21.81,33.93,40-.56,3-5.83,6.58-15.78,10.29-26.71,8.41,1.13,16.7,3.12,25,4.89,19,4.06,106.42,11.34,126.23-31.88C213,105.42,218.8,65.84,219.33,62.31ZM88.7,111.17c-3,.29-5.67-3.41-3.92-9s4.81-9.07,8.75-8.92C101.16,93.56,95.78,110.51,88.7,111.17Zm73-16.24c-3,.29-5.67-3.42-3.92-9s4.82-9.07,8.75-8.91C174.17,77.32,168.79,94.26,161.71,94.93Zm40.71-13.05c-2.24.2-4.16-2.44-2.88-6.42S203.08,69,206,69.11C211.57,69.32,207.62,81.4,202.42,81.88ZM46.53,149.32a43,43,0,0,1-9.14,11.1c-4.23,2.87-10.47,1.31-9.83-4.53,1-8.82,14.47-10.68,21-10.33C48,146.78,47.26,148.05,46.53,149.32Z"/><path class="cls-2" d="M248.78,71.25a.86.86,0,0,0-.86-.86.87.87,0,0,0-.72.38c-.16.22-.57,1-.77,1.35-2.05,3.62-6.32,8.6-11.35,8.71-5.65.12-5.22-8.5-1.06-13.59s8.37-3.28,7.93-.93-4.48,4.71-7.84,5.92a.52.52,0,0,0,.19,1c3.55-.12,10.65-1.38,12-6.45,2.23-8.09-5.33-11-12.95-6.79-6.93,3.84-15.12,17-12.05,29.09s24.44,6.42,27.42-17.61v-.11A.37.37,0,0,0,248.78,71.25Z"/><path d="M97.63,199.18l-.27-2.83-5.48-1.16-1.44,2.47-4.59-1,10.27-16.47,3.38.72,2.71,19.21Zm-1.14-11.81-2.61,4.42,3.11.66Z"/><path d="M120.11,201.89l-7.92-.58,1.34-18.19,7.53.55c3.55.27,5.65,2.42,5.43,5.54a4.27,4.27,0,0,1-2.27,3.61,4.21,4.21,0,0,1,2,4.15C125.93,200.21,123.56,202.14,120.11,201.89Zm.09-7.24-3-.22-.23,3.2,3,.22a1.5,1.5,0,0,0,1.75-1.49A1.48,1.48,0,0,0,120.2,194.65Zm.29-7-2.79-.2-.22,3,2.79.21a1.49,1.49,0,1,0,.22-3Z"/><path d="M143.93,188.13l.23,14.24-4.48.07-.23-14.24-4.48.07-.07-4,13.45-.22.06,4Z"/><path d="M170.69,192.3c.2,2.35.32,4.62-1.29,6.61a6.6,6.6,0,0,1-4.87,2.47,6.73,6.73,0,0,1-5.28-1.6c-2-1.73-2.21-4.13-2.4-6.35l-.11-1.33c-.3-3.54,0-5.11,1.28-6.71a6.6,6.6,0,0,1,4.87-2.47,6.75,6.75,0,0,1,5.28,1.6c1.39,1.22,2.09,2.8,2.32,5.43Zm-4.6-1.13a6.93,6.93,0,0,0-1-3.64,2.41,2.41,0,0,0-3.57.31,6.92,6.92,0,0,0-.34,3.75l.1,1.25c.2,2.33.47,3.33,1,3.9a2.31,2.31,0,0,0,1.86.67,2.36,2.36,0,0,0,1.72-1c.43-.66.52-1.69.32-4Z"/><path d="M194.2,197.52l-1.32-8.63L191,193.74l-2.84.43-3.24-4.06,1.32,8.63-4.43.68-2.76-18,4.36-.67,5.27,7.33,2.83-8.57,4.35-.67,2.76,18Z"/><path d="M218.73,192.86l-1.38-2.49-5.49,1.15-.32,2.84-4.59,1,2.76-19.21,3.38-.71,10.23,16.49Zm-5.8-10.36-.61,5.1,3.11-.65Z"/><path d="M237.33,188.61a6.81,6.81,0,0,1-5.42-.74c-2.33-1.39-2.89-3.89-3.56-6.55s-1.37-5.12,0-7.45a6.78,6.78,0,0,1,4.42-3.23,6.58,6.58,0,0,1,8.15,4.06l-4.42,1.12a2.24,2.24,0,0,0-2.73-1.31,2.18,2.18,0,0,0-1.53,1.17c-.26.62-.38,1.31.44,4.54s1.24,3.78,1.77,4.2a2.18,2.18,0,0,0,1.9.31,2.25,2.25,0,0,0,1.78-2.45l4.42-1.12A6.58,6.58,0,0,1,237.33,188.61Z"/><path d="M256.89,169l3.19,13.88-4.37,1L252.52,170l-4.36,1-.9-3.9,13.11-3,.89,3.9Z"/><path d="M273.36,180l-3.42-17.92,12.18-2.33.75,3.93-7.78,1.48.57,3,6.65-1.27.75,3.93-6.65,1.26.6,3.15,7.78-1.49.75,3.93Z"/><path d="M301.25,168.59l-2.71.4.95,6.44-4.43.66-2.68-18,7.14-1.06c3.57-.53,6.52,1.52,7,4.88S304.84,168.06,301.25,168.59ZM299.91,161l-2.51.37.54,3.65,2.51-.38a1.84,1.84,0,1,0-.54-3.64Z"/><path d="M323.68,172.51a6.76,6.76,0,0,1-5.25-1.52c-2.11-1.72-2.29-4.28-2.57-7s-.61-5.27,1.1-7.37a6.81,6.81,0,0,1,4.84-2.56,6.6,6.6,0,0,1,7.48,5.21l-4.53.47a2.25,2.25,0,0,0-2.52-1.7,2.15,2.15,0,0,0-1.68.94c-.35.58-.57,1.24-.23,4.55s.68,3.92,1.14,4.42a2.16,2.16,0,0,0,1.84.58,2.25,2.25,0,0,0,2.12-2.17l4.54-.46A6.6,6.6,0,0,1,323.68,172.51Z"/><path d="M339.3,171l-.86-18.22,4.48-.21.4,8.62,4.51-8.85,5.14-.25-5,8.73,6.42,9.47-5.27.24-5.82-9.29.45,9.55Z"/><path d="M372.56,170.43l-.79-2.73-5.61-.11-1,2.69-4.69-.09,7-18.1,3.45.07,6.26,18.37ZM369.23,159l-1.74,4.83,3.18.07Z"/><path d="M389.28,171.54l-5.29-.62,4.34-7a5.67,5.67,0,0,1-2.1-5.2c.42-3.59,3.27-5.52,6.86-5.1l7.17.83-2.1,18.11-4.45-.52.75-6.46-1.81-.21Zm6.08-13.71-2.57-.3a1.87,1.87,0,0,0-2.15,1.64,1.91,1.91,0,0,0,1.71,2.13l2.57.3Z"/><path class="cls-3" d="M364.42,6.28c0,30.68-19.37,32.62-31.16,32.24-.69,0-1.39,0-2.06,0,31.57-6.35,29-31.3,29-31.3Z"/><path class="cls-3" d="M356.72,71.52c-1.56,13.48-12.55,36.63-35.18,34.76-8.82-.71-12.52-5.67-13.76-11.45,4.52,9.59,21.85,13.4,32.73-5.78,17.7-31.2.79-42.65-9.82-41.33a20,20,0,0,1,4.33-1.3C350.83,44.1,358.27,58.06,356.72,71.52Z"/><path class="cls-3" d="M290.73,84c-3.46,1.94-6.53,3.72-9.28,5.33C299,76.41,302,59.5,300.24,51c-2.07-9.86-10.21-18.68-26.09-14.49,6.9-4.37,16.58-4.88,23.86-.16a20,20,0,0,1,2.69,2.17C313.29,50.61,307.72,74.47,290.73,84Z"/><path class="cls-3" d="M304.38,84.35c0,30.68-19.38,32.62-31.16,32.23-24.92-.79-35.14,15.35-35.14,15.35,2-13.72,20.16-19.72,34.52-23s16.39-7.07,21.06-14.44a.05.05,0,0,1,0,0v0a16.23,16.23,0,0,0,3.46-8.51C298.41,85.61,304.38,84.35,304.38,84.35Z"/><path class="cls-1" d="M22.22,152.29s-15.55,9.55-13.83,24c1.32,11,13.83,8.74,13.83,8.74S.87,174.45,22.22,152.29Z"/><path class="cls-1" d="M29.06,93.26c-5.83,17.93-5.07,36.28,5.86,41.25C24.48,137.29,18.9,117,29.06,93.26Z"/><path class="cls-1" d="M272.59,39.68c-9.15,8.87-6.45,24.63-2.58,28.46C263.58,66,260.7,49.06,272.59,39.68Z"/><path class="cls-1" d="M310,78.5s-3.52,13.56,1.76,19.38,14.78,2.17,14.78,2.17S307.82,104,310,78.5Z"/></g></g></svg>